# xmcd
#
# Track frame offsets:
#	150
#	9901
#	23597
#	34833
#	46564
#	59405
#	72021
#	85057
#	95438
#	107364
#	120193
#	130757
#	141929
#	154410
#	164506
#	179132
#	188170
#	198843
#	208918
#	220874
#	233775
#	246218
#	257859
#	269620
#
# Disc length: 3752 seconds
#
# Revision: 1
# Processed by: cddbd v1.5.2PL0 Copyright (c) Steve Scherf et al.
# Submitted via: EZCDAudioConverter 4.0.5.1
#
DISCID=4d0ea618
DTITLE=Kitty Wells - Especially For You and Country Music Time
DYEAR=1964
DGENRE=Country
TTITLE0=Act Naturally
TTITLE1=Guilty
TTITLE2=Busted
TTITLE3=We Missed You
TTITLE4=Ring Of Fire
TTITLE5=Cold And Lonely (Is The Forecast For Tonight)
TTITLE6=Talk Back Trembling Lips
TTITLE7=Make The World Go Away
TTITLE8=Take These Chains From My Heart
TTITLE9=The Window Up Above
TTITLE10=Unloved Unwanted
TTITLE11=Will Your Lawyer Talk To God
TTITLE12=I've Thought Of Leaving You
TTITLE13=Begging To You
TTITLE14=B J The D J 
TTITLE15=Old Records
TTITLE16=As Usual
TTITLE17=Going Through The Motions Of Living
TTITLE18=Gonna Find Me A Bluebird
TTITLE19=This White Circle
TTITLE20=A Wound Time Can't Erase
TTITLE21=Password
TTITLE22=(I Didn't Have To) Break Up Someone's Home
TTITLE23=Before This Day Ends
EXTD=
EXTT0=
EXTT1=
EXTT2=
EXTT3=
EXTT4=
EXTT5=
EXTT6=
EXTT7=
EXTT8=
EXTT9=
EXTT10=
EXTT11=
EXTT12=
EXTT13=
EXTT14=
EXTT15=
EXTT16=
EXTT17=
EXTT18=
EXTT19=
EXTT20=
EXTT21=
EXTT22=
EXTT23=
PLAYORDER=
